<svg xmlns="http://www.w3.org/2000/svg" viewBox="0 0 32 32">
  <!-- Background circle -->
  <circle cx="16" cy="16" r="15" fill="#FFB3D9" opacity="0.3"/>
  
  <!-- Heart icon (primary pink) -->
  <path d="M16 26c-1.5-1.3-3.5-2.8-5-4.5-2.5-2.5-4-5.5-4-8.5 0-3 2.5-5.5 5.5-5.5 1.5 0 3 0.8 3.5 2 0.5-1.2 2-2 3.5-2 3 0 5.5 2.5 5.5 5.5 0 3-1.5 6-4 8.5-1.5 1.7-3.5 3.2-5 4.5z" 
        fill="#FF6B9D" 
        stroke="#FF4D7A" 
        stroke-width="0.5"/>
  
  <!-- Sparkle (coral accent) -->
  <g transform="translate(22, 8)">
    <path d="M2 0 L2.5 1.5 L4 2 L2.5 2.5 L2 4 L1.5 2.5 L0 2 L1.5 1.5 Z" 
          fill="#FF8C65" 
          opacity="0.9"/>
    <circle cx="2" cy="2" r="0.8" fill="#FFB380"/>
  </g>
</svg>

